<?xml version="1.0" encoding="utf-8"?>
<!-- Generator: Adobe Illustrator 26.1.0, SVG Export Plug-In . SVG Version: 6.00 Build 0)  -->
<svg version="1.1" id="Layer_1" xmlns="http://www.w3.org/2000/svg" xmlns:xlink="http://www.w3.org/1999/xlink" x="0px" y="0px"
	 viewBox="0 0 148 48" style="enable-background:new 0 0 148 48;" xml:space="preserve">
<style type="text/css">
	.st0{enable-background:new    ;}
	.st1{fill:#26262A;}
	.st2{fill:url(#Path_85_00000065770505815039778140000016916181297195428747_);}
</style>
<g id="logo_-_header" transform="translate(-158 -36)">
	<g id="Jessy" class="st0">
		<path class="st1" d="M210.2,77.1V58.5h5.6l3.3,12.7l3.3-12.7h5.6v18.6h-3.4V62.5l-3.6,14.7h-3.6l-3.6-14.7v14.7H210.2z"/>
		<path class="st1" d="M230.8,67.9c0-1.9,0.3-3.5,0.8-4.8c0.4-0.9,1-1.8,1.7-2.6c0.7-0.8,1.5-1.3,2.4-1.7c1.1-0.5,2.5-0.7,4-0.7
			c2.7,0,4.9,0.9,6.5,2.6c1.6,1.7,2.4,4.1,2.4,7.1c0,3-0.8,5.4-2.4,7.1c-1.6,1.7-3.8,2.5-6.5,2.5c-2.7,0-4.9-0.8-6.5-2.5
			C231.6,73.2,230.8,70.9,230.8,67.9z M234.7,67.8c0,2.1,0.5,3.7,1.4,4.8c1,1.1,2.2,1.6,3.7,1.6s2.7-0.5,3.6-1.6
			c0.9-1.1,1.4-2.7,1.4-4.9c0-2.1-0.5-3.7-1.4-4.8c-0.9-1-2.2-1.6-3.7-1.6c-1.5,0-2.8,0.5-3.7,1.6C235.1,64.1,234.7,65.7,234.7,67.8
			z"/>
		<path class="st1" d="M250.8,67.9c0-1.9,0.3-3.5,0.8-4.8c0.4-0.9,1-1.8,1.7-2.6c0.7-0.8,1.5-1.3,2.4-1.7c1.1-0.5,2.5-0.7,4-0.7
			c2.7,0,4.9,0.9,6.5,2.6c1.6,1.7,2.4,4.1,2.4,7.1c0,3-0.8,5.4-2.4,7.1c-1.6,1.7-3.8,2.5-6.5,2.5c-2.7,0-4.9-0.8-6.5-2.5
			C251.6,73.2,250.8,70.9,250.8,67.9z M254.6,67.8c0,2.1,0.5,3.7,1.4,4.8c1,1.1,2.2,1.6,3.7,1.6s2.7-0.5,3.6-1.6
			c0.9-1.1,1.4-2.7,1.4-4.9c0-2.1-0.5-3.7-1.4-4.8c-0.9-1-2.1-1.6-3.7-1.6S257,61.9,256,63C255.1,64.1,254.6,65.7,254.6,67.8z"/>
		<path class="st1" d="M271.5,58.5h6.8c1.5,0,2.7,0.1,3.5,0.4c1.1,0.3,2,0.9,2.8,1.7c0.8,0.8,1.4,1.8,1.8,3c0.4,1.2,0.6,2.7,0.6,4.4
			c0,1.5-0.2,2.9-0.6,4c-0.5,1.4-1.1,2.5-2,3.3c-0.6,0.6-1.5,1.1-2.6,1.5c-0.8,0.3-1.9,0.4-3.3,0.4h-7V58.5z M275.2,61.6V74h2.8
			c1,0,1.8-0.1,2.2-0.2c0.6-0.2,1.1-0.4,1.5-0.8c0.4-0.4,0.7-1,1-1.8c0.3-0.8,0.4-2,0.4-3.4s-0.1-2.5-0.4-3.3
			c-0.2-0.8-0.6-1.4-1.1-1.8c-0.5-0.4-1-0.7-1.7-0.9c-0.5-0.1-1.5-0.2-3-0.2H275.2z"/>
		<path class="st1" d="M294.9,77.1v-7.8l-6.7-10.8h4.3l4.3,7.4l4.2-7.4h4.3l-6.8,10.8v7.8H294.9z"/>
	</g>
	
		<linearGradient id="Path_85_00000150081425838839228650000015792069437756009885_" gradientUnits="userSpaceOnUse" x1="-440.4128" y1="460.3311" x2="-440.4128" y2="459.3441" gradientTransform="matrix(2.430136e-15 39.6871 39.6895 -2.430278e-15 -18072.123 17536.1973)">
		<stop  offset="0" style="stop-color:#64F4AB"/>
		<stop  offset="1" style="stop-color:#327A56"/>
	</linearGradient>
	<path id="Path_85" style="fill:url(#Path_85_00000150081425838839228650000015792069437756009885_);" d="M194.5,60.2v13.5h-16
		c-0.3,0-0.7,0-1,0c-0.4,0-0.8-0.1-1.2-0.1c-0.4-0.1-0.8-0.1-1.2-0.2c-8.6-1.9-14.1-10.5-12.2-19.2c1.9-8.7,10.4-14.3,19-12.4
		c6.1,1.3,10.9,6.2,12.2,12.4h3c0.2,0,0.5,0,0.7,0c-1.9-10.8-12-18-22.7-16.1c-10.7,1.9-17.8,12.2-15.9,23c1.6,9.1,9.2,16,18.3,16.4
		c0.2,0,0.3,0,0.5,0c0.1,0,0.2,0,0.3,0c0.1,0,0.2,0,0.2,0l0,0h19.6V60.2c-0.3,0-0.7,0-1,0L194.5,60.2z"/>
</g>
</svg>
