<?xml version="1.0" encoding="utf-8"?>
<!-- Generator: Adobe Illustrator 26.1.0, SVG Export Plug-In . SVG Version: 6.00 Build 0)  -->
<svg version="1.1" id="Layer_1" xmlns="http://www.w3.org/2000/svg" xmlns:xlink="http://www.w3.org/1999/xlink" x="0px" y="0px"
	 viewBox="0 0 300 300" style="enable-background:new 0 0 300 300;" stroke-width="150"  fill="white"  xml:space="preserve">var(--color-bright-green)
<g>
	<path d="M174.1,52.2c-0.2,2.1-0.3,4.1-0.7,6.1c-0.1,0.7-0.8,1.4-1.4,1.9c-3.1,2.9-6.2,5.9-9.5,8.6c-1.1,0.9-2.8,1.3-4.2,1.3
		c-16.2-0.2-31.4,3.4-45.4,12.1c-15.5,9.6-26.3,23.3-32.3,40.9c-2.1,6.2-3.6,12.6-4.9,19c-0.6,2.9-1.9,3.6-4.4,3.9
		c-11.5,1.7-22.5,4.9-32.2,11.8c-12,8.6-18.9,20.5-19.5,35.8c0,0.1,0,0.2,0,0.3c-0.1,2.1-0.1,4.2,0,6.2c0.9,19.2,9.3,34.3,26.3,44.5
		c2.6,1.5,5.6,2.3,8.3,3.6c1,0.5,2.1,1.8,2.1,2.8c0.2,5.2,0.1,10.4,0.1,15.6c0,2.2-1,2.6-2.8,2.2c-14.9-3.6-27.5-11.1-37.3-23.6
		c-4.6-5.8-8.1-12.2-10.8-19c-0.8-1.9-1.5-3.9-2.1-6c-1.6-6-2.5-14-2.5-22.9c0-8.9,1-16.9,2.6-22.9c0.7-2.3,1.5-4.5,2.4-6.6
		c0,0,0,0,0-0.1c5.3-12.3,13.9-22.1,25.6-29.4c7.8-4.9,16.3-7.9,24.9-10.6c1.2-0.4,2.4-1.9,2.8-3.2c6-21.5,16.9-39.5,33.9-53.4
		c12.1-9.9,25.9-16.2,40.9-19.4c12.6-2.6,25.3-3,38-0.6C172.8,51.7,173.4,51.9,174.1,52.2z"/>
	<path d="M280.3,94.4c-0.4,0-0.8-0.2-1.2-0.2c-2.6-0.3-3.2-1.7-4.2-4.3c-2.7-6.8-0.3-10.5,5-13.8c2.7-1.7,3.1-5.3,1.3-8
		c-2.1-3.2-4.3-6.3-6.7-9.3c-2.3-2.9-4.7-3.2-7.7-1.2c-2.3,1.5-4.3,3.3-6.6,5c-2.8-1.8-5.3-3.6-7.9-5.1c-1.9-1-2.2-2.3-1.9-4.2
		c0.4-2.4,0.8-4.9,0.9-7.4c0.1-2.9-1.5-4.8-4.1-5.3c-3.9-0.7-7.8-1.2-11.7-1.6c-3.1-0.4-5.3,0.9-5.9,4.3c-0.4,2-0.7,4-0.8,6.1
		c-0.1,2.1-1,3.1-3,3.5c-2.2,0.4-4.4,1.2-6.7,1.4c-1.2,0.1-2.8-0.5-3.6-1.3c-1.6-1.6-2.8-3.8-4.3-5.5c-2.3-2.7-4.5-3.1-7.4-1
		c-3.2,2.2-6.2,4.7-9.2,7.2c-2.3,2-2.5,5.6-0.7,8.2c1.2,1.7,2.5,3.2,3.4,5c0.4,0.9,0.4,2.3,0,3.3c-2.6,6.6-6.7,9.9-14,7.5
		c-3-1-5.8,1.9-6.2,5.3c-0.2,1.6-0.2,3.2-0.6,4.8c-1.7,8-1.8,13.2,8.1,13.2c2.7,0,3.7,1.6,4.7,4.6c2.4,6.6,0.2,10.1-4.9,13.4
		c-3.1,2-3.4,5.5-1.3,8.8c1.1,1.7,2.4,3.3,3.5,4.9c5.6,8,6.7,8.2,14.3,2.1c2-1.6,3.6-2.5,5.8-0.2c1.4,1.4,3.3,2.3,5,3.2
		c1.7,0.9,2.2,2,1.8,3.9c-0.5,2.4-0.8,4.9-0.9,7.4c-0.1,3,1.4,5,4.2,5.5c3.9,0.7,7.8,1.3,11.7,1.7c3.2,0.3,5-1.1,5.8-4.5
		c0.5-2.1,0.6-4.3,1-6.4c0.2-0.9,0.8-2.3,1.5-2.5c3.1-0.9,6.2-1.7,9.3-2.2c0.7-0.1,1.7,0.7,2.2,1.4c1.4,1.6,2.5,3.4,3.8,5.1
		c2.5,3.3,5,3.8,8.3,1.4c2.9-2.1,5.7-4.3,8.4-6.7c2.7-2.3,3-5.5,1-8.6c-1.1-1.7-2.5-3.2-3.5-5c-0.4-0.8-0.6-2.1-0.2-2.9
		c4.4-8.9,4.4-8.9,14.2-7.7c3.2,0.4,6-2,6.4-5.5c0.2-2.2,0.3-4.3,0.8-6.4C289.3,99.5,288.5,94,280.3,94.4z M232,121
		c-12.3,0-22.7-10.7-22.6-23.4c0.1-12.8,10.3-23.5,22.6-23.6c12.5,0,22.9,10.7,22.7,23.7C254.5,111.2,243.5,121.6,232,121z"/>
	<path d="M165,266.3c-3.4-8.9-6.6-17.8-9.8-26.8c-7.9-22.1-15.8-44.2-23.6-66.3c-1-2.7-2.6-3.7-5.4-3.6c-7.4,0.2-14.8,0-22.1,0
		c-7.1,0-6.9,0.1-9.4,6.9c-7.5,21-15.1,42-22.6,63c-3.6,10-7.1,20-11,30.9c2.5,0.2,4.2,0.5,5.8,0.5c5.8,0,11.7,0,17.6,0
		c6.7,0,6.7,0,8.8-6.8c0.6-2.1,0.8-4.4,1.9-6.1c1-1.6,2.9-3.4,4.5-3.5c9.2-0.3,18.4-0.1,27.6-0.2c2.7,0,4,1.3,4.6,4
		c0.7,3,1.5,5.9,2.4,8.8c0.7,2.4,1.9,4,4.7,3.9c7.8-0.1,15.6-0.1,23.4,0C165.7,271,166.2,269.4,165,266.3z M120.4,232.7
		c-4.4-0.1-8.9-0.2-13.3,0c-3.4,0.2-4.3-1.4-3.4-4.5c2-6.8,3.9-13.6,6-20.3c1-3.4,2.1-6.8,3.2-10.2c0.4,0,0.8,0,1.2,0
		c2.4,8,4.7,16,7.1,24c0.7,2.5,1.4,5,2,7.5C123.7,231.7,122.8,232.8,120.4,232.7z"/>
	<path d="M255.7,191.9c-1.5-7.8-5.2-14.8-12.4-18c-4.9-2.2-10.4-3.8-15.6-4c-16.1-0.5-32.3-0.1-48.5-0.4c-3.8,0-5.1,1.1-5,5.2
		c0.2,15.1,0.1,30.3,0.1,45.4c0,15.3,0.1,30.6-0.1,45.8c0,3.8,1.2,5.2,4.9,5c6.5-0.2,13.1-0.2,19.6,0c4.1,0.1,5.3-1.5,5.2-5.7
		c-0.2-9.3,0-18.6-0.1-27.9c0-3.2,1.1-4.3,4.2-4.3c6.8,0.1,13.7,0.5,20.5-0.2c11.1-1.1,20.3-5.8,25.3-17
		C257.1,208.1,257.2,200,255.7,191.9z M217.9,212.4c-3.4,0.4-6.9,0.3-10.4,0.4c-2.6,0.1-3.8-1.1-3.7-3.9c0.1-2.6,0-5.2,0-7.8
		c0-11,0-11,10.6-10.9c4.5,0,8.7,0.8,11.3,5C230.2,202.5,226.3,211.3,217.9,212.4z"/>
	<path d="M268.9,219.6c0-15,0.2-30-0.1-44.9c-0.1-4.2,1.4-5.2,5-5.1c7.1,0.2,14.2,0.2,21.3,0c2.9-0.1,3.9,1,3.9,4.1
		c-0.1,31-0.1,62,0,92.9c0,3.2-1,4.5-4.1,4.4c-7.2-0.1-14.5-0.1-21.7,0c-3.1,0-4.4-1.2-4.3-4.7C269,250.7,268.9,235.2,268.9,219.6z"
		/>
	<path d="M3.5,220.5c0.6,2,1.3,4,2.1,6C4.9,224.8,4.2,222.8,3.5,220.5z"/>
	<path d="M3.6,174.7c0.7-2.6,1.5-4.8,2.4-6.6C5.1,170.2,4.3,172.4,3.6,174.7z"/>
	<path d="M19.7,197.6c0,0.9,0,1.7,0,2.6c-0.1-2-0.1-4.1,0-6.2C19.7,195.1,19.7,196.4,19.7,197.6z"/>
</g>
</svg>
